<svg xmlns="http://www.w3.org/2000/svg" xmlns:xlink="http://www.w3.org/1999/xlink" width="100mm" height="20mm" viewBox="0 0 100 20"><defs><radialGradient xlink:href="#a" id="c" cx="145.428" cy="16.247" r="78.372" fx="145.428" fy="16.247" gradientTransform="matrix(.03864 -.09646 .09648 .03877 113.919 -248.33)" gradientUnits="userSpaceOnUse"/><radialGradient xlink:href="#b" id="d" cx="78.414" cy="171.448" r="21.911" fx="78.414" fy="171.448" gradientTransform="rotate(118.19 -54.15 146.134)scale(.38506 .131)" gradientUnits="userSpaceOnUse"/><linearGradient id="b"><stop offset="0" style="stop-color:#32e6ff;stop-opacity:1"/><stop offset="1" style="stop-color:#b477a0;stop-opacity:1"/></linearGradient><linearGradient id="a"><stop offset="0" style="stop-color:#ffe632;stop-opacity:1"/><stop offset=".316" style="stop-color:#ffc828;stop-opacity:.91914892"/><stop offset="1" style="stop-color:#fff;stop-opacity:0"/></linearGradient></defs><g transform="translate(0 -277)"><ellipse cx="121.077" cy="-261.774" rx="8.133" ry="8.145" style="fill:url(#c);fill-opacity:1;stroke:#000;stroke-width:0;stroke-miterlimit:4;stroke-dasharray:none;stroke-opacity:.88127854" transform="rotate(153.434)scale(1 .99994)skewX(.622)"/><path id="e" d="M11.316 287c-.31-1.254-.22-2.844-.006-3.959-.164.36-.669.773-.98.992.198-4.198 3.24-6.088 5.03-5.643 1.316 1.216 1.317 3.627-1.537 6.78-.171-.379-.242-.873-.209-1.182A23 23 0 0 0 11.316 287z" style="fill:url(#d);fill-opacity:1;stroke:#000;stroke-width:0;stroke-linecap:butt;stroke-linejoin:miter;stroke-miterlimit:4;stroke-dasharray:none;stroke-opacity:1"/><use xlink:href="#e" width="100%" height="100%" transform="rotate(90 11.316 287)"/><use xlink:href="#e" id="f" width="100%" height="100%" x="0" y="0" transform="rotate(-90 11.316 287)"/><use xlink:href="#f" width="100%" height="100%" transform="rotate(-90 11.316 287)"/><text xml:space="preserve" x="21.099" y="291.997" style="font-style:normal;font-variant:normal;font-weight:600;font-stretch:normal;font-size:14.11111069px;line-height:1.25;font-family:&quot;Source Sans Pro&quot;;-inkscape-font-specification:&quot;Source Sans Pro, Semi-Bold&quot;;font-variant-ligatures:normal;font-variant-caps:normal;font-variant-numeric:normal;font-feature-settings:normal;text-align:start;letter-spacing:-1.04510415px;word-spacing:0;writing-mode:lr-tb;text-anchor:start;fill:#ffc828;fill-opacity:1;stroke:none;stroke-width:3.20515347"><tspan x="21.099" y="291.997" style="font-style:normal;font-variant:normal;font-weight:500;font-stretch:normal;font-size:16.93333244px;font-family:&quot;Noto Sans&quot;;-inkscape-font-specification:&quot;Noto Sans, Medium&quot;;font-variant-ligatures:normal;font-variant-caps:normal;font-variant-numeric:normal;font-feature-settings:normal;text-align:start;letter-spacing:-.92604166px;writing-mode:lr-tb;text-anchor:start;fill:#ffc828;fill-opacity:1;stroke-width:3.20515347">encelerate</tspan></text></g></svg>