<svg xmlns="http://www.w3.org/2000/svg" xmlns:xlink="http://www.w3.org/1999/xlink" width="20mm" height="20mm" viewBox="0 0 20 20"><defs><radialGradient xlink:href="#a" id="c" cx="145.428" cy="16.247" r="78.372" fx="145.428" fy="16.247" gradientTransform="matrix(.03864 -.09646 .09648 .03877 115.09 -247.74)" gradientUnits="userSpaceOnUse"/><radialGradient xlink:href="#b" id="d" cx="78.414" cy="171.448" r="21.911" fx="78.414" fy="171.448" gradientTransform="rotate(118.19 -54.808 145.74)scale(.38506 .131)" gradientUnits="userSpaceOnUse"/><linearGradient id="b"><stop offset="0" style="stop-color:#32e6ff;stop-opacity:1"/><stop offset="1" style="stop-color:#b477a0;stop-opacity:1"/></linearGradient><linearGradient id="a"><stop offset="0" style="stop-color:#ffe632;stop-opacity:1"/><stop offset=".316" style="stop-color:#ffc828;stop-opacity:.91914892"/><stop offset="1" style="stop-color:#fff;stop-opacity:0"/></linearGradient></defs><g transform="translate(0 -277)"><ellipse cx="122.248" cy="-261.186" rx="8.133" ry="8.145" style="fill:url(#c);fill-opacity:1;stroke:#000;stroke-width:0;stroke-miterlimit:4;stroke-dasharray:none;stroke-opacity:.88127854" transform="rotate(153.434)scale(1 .99994)skewX(.622)"/><path id="e" d="M10 287c-.31-1.254-.22-2.844-.007-3.959-.163.36-.668.773-.979.992.198-4.198 3.24-6.088 5.03-5.643 1.316 1.216 1.316 3.627-1.538 6.78-.17-.379-.24-.873-.208-1.182A23 23 0 0 0 10 287z" style="fill:url(#d);fill-opacity:1;stroke:#000;stroke-width:0;stroke-linecap:butt;stroke-linejoin:miter;stroke-miterlimit:4;stroke-dasharray:none;stroke-opacity:1"/><use xlink:href="#e" width="100%" height="100%" transform="rotate(90 10 287)"/><use xlink:href="#e" id="f" width="100%" height="100%" x="0" y="0" transform="rotate(-90 10 287)"/><use xlink:href="#f" width="100%" height="100%" transform="rotate(-90 10 287)"/></g></svg>